<svg xmlns="http://www.w3.org/2000/svg" version="1.1" xmlns:xlink="http://www.w3.org/1999/xlink" xmlns:svgjs="http://svgjs.dev/svgjs" viewBox="0 0 8.825487278143166 1.7309218057144444"><g transform="matrix(1,0,0,1,1.924656189262309,0.32996090285722235)"><rect width="8.825487278143166" height="8.825487278143166" x="-1.9246561892623086" y="-3.877243639071583" fill="#ffffff"></rect><g><path d=" M 0.3375 0.005999999999999783 L 0.6645 0.005999999999999783 L 1.0035 1.0709999999999997 L 0.7065 1.0709999999999997 L 0.642 0.8624999999999997 L 0.3585 0.8624999999999997 L 0.2955 1.0709999999999997 L -0.003 1.0709999999999997 L 0.3375 0.005999999999999783 M 0.5955 0.6674999999999998 L 0.501 0.29249999999999976 L 0.402 0.6674999999999998 L 0.5955 0.6674999999999998 M 1.0964882812499999 1.0709999999999997 L 1.0964882812499999 0.005999999999999783 L 1.58548828125 0.005999999999999783 Q 1.6634882812499998 0.005999999999999783 1.72948828125 0.037499999999999645 Q 1.79548828125 0.06899999999999973 1.84348828125 0.12224999999999975 Q 1.89148828125 0.17549999999999966 1.9177382812500001 0.24149999999999971 Q 1.94398828125 0.30749999999999966 1.94398828125 0.37499999999999967 Q 1.94398828125 0.43649999999999967 1.92598828125 0.4934999999999997 Q 1.90798828125 0.5504999999999998 1.87348828125 0.5977499999999998 Q 1.8389882812499998 0.6449999999999998 1.79098828125 0.6794999999999998 L 2.0159882812500003 1.0709999999999997 L 1.6949882812500001 1.0709999999999997 L 1.5074882812500001 0.7439999999999998 L 1.38898828125 0.7439999999999998 L 1.38898828125 1.0709999999999997 L 1.0964882812499999 1.0709999999999997 M 1.38898828125 0.48899999999999977 L 1.57348828125 0.48899999999999977 Q 1.59148828125 0.48899999999999977 1.60798828125 0.4754999999999997 Q 1.62448828125 0.46199999999999974 1.63573828125 0.43649999999999967 Q 1.64698828125 0.4109999999999997 1.64698828125 0.37499999999999967 Q 1.64698828125 0.3374999999999997 1.63423828125 0.31274999999999975 Q 1.62148828125 0.2879999999999997 1.60273828125 0.27449999999999974 Q 1.58398828125 0.2609999999999997 1.5659882812500001 0.2609999999999997 L 1.38898828125 0.2609999999999997 L 1.38898828125 0.48899999999999977 M 2.04151171875 0.5294999999999997 Q 2.04151171875 0.4319999999999997 2.07826171875 0.3382499999999997 Q 2.11501171875 0.24449999999999972 2.18551171875 0.1679999999999997 Q 2.25601171875 0.09149999999999969 2.35726171875 0.045749999999999735 Q 2.45851171875 -2.220446049250313e-16 2.58601171875 -2.220446049250313e-16 Q 2.73901171875 -2.220446049250313e-16 2.85301171875 0.06374999999999975 Q 2.96701171875 0.12749999999999972 3.0225117187499997 0.2324999999999997 L 2.79901171875 0.39149999999999974 Q 2.77951171875 0.33899999999999975 2.7427617187499997 0.31049999999999967 Q 2.70601171875 0.2819999999999997 2.66326171875 0.2707499999999997 Q 2.62051171875 0.25949999999999973 2.58001171875 0.25949999999999973 Q 2.51701171875 0.25949999999999973 2.47126171875 0.28424999999999967 Q 2.4255117187499997 0.3089999999999997 2.39626171875 0.3494999999999997 Q 2.3670117187499997 0.3899999999999997 2.35276171875 0.43949999999999967 Q 2.33851171875 0.48899999999999977 2.33851171875 0.5384999999999998 Q 2.33851171875 0.5939999999999996 2.35501171875 0.6449999999999998 Q 2.37151171875 0.6959999999999997 2.4030117187499997 0.7357499999999997 Q 2.43451171875 0.7754999999999997 2.48026171875 0.7979999999999997 Q 2.52601171875 0.8204999999999998 2.58301171875 0.8204999999999998 Q 2.6235117187499997 0.8204999999999998 2.66551171875 0.8077499999999997 Q 2.70751171875 0.7949999999999997 2.7420117187499997 0.7664999999999997 Q 2.77651171875 0.7379999999999998 2.79451171875 0.6899999999999997 L 3.03301171875 0.8324999999999997 Q 3.00151171875 0.9104999999999998 2.9280117187499997 0.9659999999999997 Q 2.85451171875 1.0214999999999996 2.76151171875 1.0507499999999996 Q 2.66851171875 1.0799999999999996 2.5770117187499997 1.0799999999999996 Q 2.45851171875 1.0799999999999996 2.36026171875 1.0327499999999998 Q 2.2620117187499997 0.9854999999999997 2.1907617187499997 0.9067499999999997 Q 2.11951171875 0.8279999999999997 2.08051171875 0.7297499999999997 Q 2.04151171875 0.6314999999999997 2.04151171875 0.5294999999999997 M 3.3705007324218745 0.005999999999999783 L 3.6975007324218745 0.005999999999999783 L 4.0365007324218745 1.0709999999999997 L 3.7395007324218748 1.0709999999999997 L 3.6750007324218745 0.8624999999999997 L 3.3915007324218744 0.8624999999999997 L 3.3285007324218747 1.0709999999999997 L 3.0300007324218745 1.0709999999999997 L 3.3705007324218745 0.005999999999999783 M 3.6285007324218745 0.6674999999999998 L 3.5340007324218745 0.29249999999999976 L 3.4350007324218748 0.6674999999999998 L 3.6285007324218745 0.6674999999999998 M 4.129489013671875 1.0709999999999997 L 4.129489013671875 0.005999999999999783 L 4.538989013671875 0.005999999999999783 Q 4.715989013671875 0.005999999999999783 4.835239013671875 0.07724999999999971 Q 4.954489013671875 0.14849999999999974 5.0152390136718745 0.26924999999999977 Q 5.075989013671875 0.3899999999999997 5.075989013671875 0.5369999999999997 Q 5.075989013671875 0.6989999999999997 5.009239013671875 0.8189999999999997 Q 4.942489013671874 0.9389999999999997 4.821739013671875 1.0049999999999997 Q 4.700989013671875 1.0709999999999997 4.538989013671875 1.0709999999999997 L 4.129489013671875 1.0709999999999997 M 4.7789890136718745 0.5369999999999997 Q 4.7789890136718745 0.4544999999999997 4.750489013671875 0.39224999999999977 Q 4.721989013671875 0.32999999999999974 4.667989013671875 0.29549999999999976 Q 4.613989013671874 0.2609999999999997 4.538989013671875 0.2609999999999997 L 4.421989013671875 0.2609999999999997 L 4.421989013671875 0.8159999999999997 L 4.538989013671875 0.8159999999999997 Q 4.6154890136718745 0.8159999999999997 4.668739013671875 0.7799999999999998 Q 4.721989013671875 0.7439999999999998 4.750489013671875 0.6802499999999998 Q 4.7789890136718745 0.6164999999999997 4.7789890136718745 0.5369999999999997 M 5.207994140625 1.0709999999999997 L 5.207994140625 0.005999999999999783 L 5.500494140625 0.005999999999999783 L 5.500494140625 1.0709999999999997 L 5.207994140625 1.0709999999999997 M 5.9340190429687505 0.005999999999999783 L 6.2610190429687504 0.005999999999999783 L 6.60001904296875 1.0709999999999997 L 6.30301904296875 1.0709999999999997 L 6.2385190429687505 0.8624999999999997 L 5.95501904296875 0.8624999999999997 L 5.89201904296875 1.0709999999999997 L 5.59351904296875 1.0709999999999997 L 5.9340190429687505 0.005999999999999783 M 6.1920190429687505 0.6674999999999998 L 6.0975190429687505 0.29249999999999976 L 5.99851904296875 0.6674999999999998 L 6.1920190429687505 0.6674999999999998" fill="#4caf7a" fill-rule="nonzero"></path></g><g></g><g clip-path="url(#SvgjsClipPath1004)"><g clip-path="url(#SvgjsClipPath1001ba9c1bee-0cfb-4522-9942-1954b58af563)"><path d=" M -0.4338247483427591 0.08945226899146641 C -0.47958042798460987 0.05745572057184914 -0.5424810241169529 0.06761511988655611 -0.5758370505451882 0.11238940749870535 C -0.5183035836428265 0.14470846436451498 -0.4725911319536422 0.19455192257178616 -0.44535786864283566 0.254659913886959 C -0.4382498054272992 0.24892127550987297 -0.4317855426203314 0.24242815438680154 -0.42607862276808217 0.23529459995026408 C -0.3881669946404749 0.19280391247821807 -0.39162549553308934 0.1276880262278359 -0.43382474834276086 0.08945226899146641 Z M -0.8615830161888597 -0.025190389513764472 C -0.8059592139623418 -0.03001235262830755 -0.7565731178859634 0.01024370098547523 -0.7500818419444686 0.06569748389578814 C -0.8160517540613468 0.06494716347193816 -0.8805421954649704 0.0852530598185213 -0.9341814264359796 0.12366432361296073 C -0.9374993880043783 0.11514640350916688 -0.9398522552699273 0.10628345564998098 -0.9411959734841604 0.09724142859711585 C -0.952809945049493 0.04148756903496231 -0.9172550145735916 -0.013190148372572033 -0.861583016188858 -0.025190389513766207 Z M -0.7771502474248715 0.24743019668392607 C -0.7591027522312369 0.28097898951880584 -0.7706504179780617 0.3227895034297257 -0.803357972285866 0.34232023497373204 C -0.8302305798233125 0.3693479326401901 -0.8736123369763844 0.37044764501557487 -0.901819835146216 0.3448162087700156 C -0.9198717101074517 0.31125457714491284 -0.9083254658540956 0.2694302506705199 -0.8756121102852198 0.24988313644924232 C -0.8487184669408496 0.22288962613313226 -0.8053546512525446 0.22180932128425568 -0.7771502474248715 0.24743019668392607 Z M -0.6432283430448854 0.2833205785132663 C -0.675663394583178 0.30332384329421525 -0.6865902469696583 0.3453239321547507 -0.6680159448838534 0.378597923081804 C -0.6582720252970227 0.41546191179275394 -0.621223303175894 0.4381122826133521 -0.5839704823985985 0.42998055606049984 C -0.5515451591652496 0.40994693859687326 -0.5406394213929167 0.3679361400478 -0.5592259145906013 0.3346601774609914 C -0.5689882453413115 0.29783384510157096 -0.6060029949387624 0.2752116134059964 -0.6432283430448854 0.2833205785132663 Z M -0.7615719282135743 0.4570919955718735 C -0.7241323212692987 0.4671619588189561 -0.698139766563158 0.49151922034821993 -0.703519020434462 0.5116161128114126 C -0.7088982743057659 0.5317130052746036 -0.7435837032679352 0.5398464371280157 -0.7809802761812418 0.5298195079119057 C -0.8183768490945467 0.5197925786957938 -0.8444124378316581 0.4953922831355593 -0.8390331839603542 0.4752953906723665 C -0.8336539300890502 0.45519849820917546 -0.798925467095912 0.4470650663557634 -0.7615719282135743 0.4570919955718735 Z M -1.269588663819532 0.8337258346251011 C -1.242502816162418 0.9264321393857211 -1.2029824651322936 1.0150416883437414 -1.1521057592702497 1.0971371381951207 L -0.9406795651125165 1.0971371381951207 C -0.9556218335701259 1.0305372500999521 -0.963141256598686 0.9624871933251546 -0.9631002952481115 0.8942316821695296 C -0.9631002952481097 0.8739196195514848 -0.9624547847835552 0.8537366590263523 -0.9611637638544409 0.8336828005941302 C -0.9340964998128701 0.9264094920581183 -0.8945751723162413 1.0150357070523903 -0.8436808593051621 1.0971371381951174 L -0.6322546651474255 1.0971371381951174 C -0.6472114078973183 1.0305388680036829 -0.6547452657417986 0.962488791879682 -0.6547184293139912 0.894231682169528 C -0.6547784338889334 0.8069610284295144 -0.642433297244408 0.7201248736047512 -0.6180534349272084 0.6363287345638112 C -0.7241794941371271 0.6656427054716688 -0.8379199069335135 0.6428371298646415 -0.9245418034986028 0.5748761383379477 L -1.2876629568271127 0.30251375632607996 C -1.302904916630834 0.37247089406628353 -1.3111506619137416 0.44377064261394783 -1.3122784225421993 0.515360073505838 L -1.5960878567922019 0.30251375632607996 C -1.6125466545121891 0.3780791344280399 -1.6208424117691747 0.45519360840820045 -1.6208324246002008 0.5325306518630413 C -1.6211444816306586 0.7320058360132051 -1.5656157919476656 0.9275860799436626 -1.4605306592353564 1.097137138195093 L -1.249104465077604 1.097137138195093 C -1.2640467335352117 1.0305372500999503 -1.2715661565637735 0.9624871933251529 -1.271525195213199 0.8942316821695262 C -1.2715251952132007 0.8739196195514831 -1.2708796847486445 0.8537510037033408 -1.269588663819532 0.8337258346250975 Z" fill="#4caf7a" transform="matrix(1,0,0,1,0,0)" fill-rule="evenodd"></path></g></g></g><defs><clipPath id="SvgjsClipPath1004"><path d=" M -1.6208324246002026 -0.026137138195116094 h 1.2208324246002027 v 1.123274276390232 h -1.2208324246002027 Z"></path></clipPath><clipPath id="SvgjsClipPath1001ba9c1bee-0cfb-4522-9942-1954b58af563"><path d=" M -1.6208324246002026 -0.026137138195116094 L -0.3999999999999999 -0.026137138195116094 L -0.3999999999999999 1.0971371381951158 L -1.6208324246002026 1.0971371381951158 Z"></path></clipPath></defs></svg>